<svg xmlns="http://www.w3.org/2000/svg" version="1.1" xmlns:xlink="http://www.w3.org/1999/xlink" width="512" height="512" x="0" y="0" viewBox="0 0 512 512" style="enable-background:new 0 0 512 512" xml:space="preserve" class=""><g transform="matrix(1,0,0,1,5.684341886080802e-14,0)"><linearGradient id="a" x1="64.54" x2="423.17" y1="468.61" y2="109.99" gradientUnits="userSpaceOnUse"><stop stop-opacity="1" stop-color="#af48ef" offset="0"></stop><stop stop-opacity="1" stop-color="#80cff9" offset="1"></stop></linearGradient><path fill="url(#a)" d="M131.07 381.28c.22 6.42-.12 11.11-.54 14.56-.76 5.68-5.62 10.77-11.2 11.67-3.39.52-8.01.97-14.36.86-6.35-.13-11.04-.76-14.49-1.4-5.7-1.12-11.17-6.34-12.52-11.99-.78-3.43-1.6-8.09-1.94-14.44-.32-6.35.01-11 .45-14.41.77-5.62 5.8-10.68 11.49-11.63 3.45-.54 8.16-1.03 14.62-.98 6.45.06 11.19.64 14.68 1.23 5.75 1.05 11.06 6.25 12.23 11.95.68 3.46 1.35 8.16 1.59 14.58zm293.24-26.78c-3.46-.54-8.16-1.03-14.62-.98-6.45.06-11.19.64-14.68 1.23-5.75 1.05-11.06 6.25-12.23 11.95-.67 3.46-1.36 8.16-1.59 14.58-.22 6.42.12 11.11.54 14.56.76 5.68 5.62 10.77 11.2 11.67 3.39.52 8.01.97 14.36.86 6.35-.13 11.04-.76 14.49-1.4 5.7-1.12 11.17-6.34 12.52-11.99.78-3.43 1.6-8.09 1.94-14.44.32-6.35-.01-10.99-.45-14.41-.77-5.62-5.8-10.68-11.49-11.63zM306.2 249.25c1.07 5.74 6.32 10.96 12.05 12 3.48.59 8.21 1.15 14.66 1.18 6.45.02 11.17-.5 14.63-1.06 5.71-.98 10.8-6.14 11.68-11.83.49-3.46.92-8.17.73-14.61-.2-6.44-.9-11.15-1.59-14.63-1.2-5.72-6.53-10.97-12.19-12.04-3.44-.61-8.11-1.21-14.46-1.27-6.35-.05-10.99.45-14.39 1-5.61.97-10.62 6.15-11.53 11.88-.51 3.48-.97 8.21-.89 14.68.1 6.47.69 11.21 1.31 14.69zm29.99 44.31c-.57 3.47-1.09 8.2-1.1 14.65 0 6.45.53 11.18 1.1 14.65.99 5.72 6.16 10.91 11.89 11.9 3.48.57 8.21 1.09 14.68 1.08 15.78-.06 31.56-.12 47.33-.2 6.47-.04 11.22-.6 14.71-1.19 5.76-1.03 11.06-6.18 12.13-11.81.61-3.42 1.2-8.07 1.2-14.42-.01-6.35-.59-11-1.2-14.42-1.07-5.63-6.38-10.78-12.13-11.81-3.49-.59-8.24-1.15-14.71-1.19-15.78-.08-31.56-.15-47.33-.2-6.47-.02-11.2.51-14.68 1.08-5.73.99-10.89 6.18-11.89 11.9zm46.59-43.83c1.17 5.7 6.49 10.9 12.23 11.95 3.48.6 8.23 1.18 14.68 1.23s11.16-.44 14.62-.98c5.69-.95 10.72-6.01 11.49-11.63.43-3.41.77-8.05.45-14.41-.34-6.35-1.16-11.01-1.94-14.44-1.35-5.65-6.83-10.88-12.52-11.99-3.46-.64-8.14-1.27-14.49-1.4-6.35-.11-10.97.34-14.36.86-5.58.91-10.44 5.99-11.2 11.67-.42 3.44-.76 8.14-.54 14.56.24 6.42.92 11.12 1.59 14.58zm-35.24 105.33c-3.46-.56-8.18-1.08-14.63-1.06-25.59.11-51.19.16-76.78.16-6.45 0-11.18.55-14.65 1.12-5.72 1.01-10.89 6.22-11.86 11.96-.56 3.48-1.06 8.23-1.02 14.7.06 6.48.64 11.22 1.24 14.71 1.05 5.74 6.23 10.98 11.86 12 3.42.59 8.08 1.14 14.43 1.14 25.19 0 50.39-.12 75.58-.36 6.35-.07 11.02-.66 14.46-1.27 5.67-1.07 10.99-6.32 12.19-12.04.69-3.47 1.39-8.19 1.59-14.63.18-6.44-.24-11.15-.73-14.6-.87-5.7-5.97-10.85-11.68-11.84zm-141.49 12.12c-1.07-5.74-6.31-10.97-12.05-12-3.48-.59-8.21-1.15-14.66-1.18-6.45-.02-11.17.5-14.63 1.06-5.71.98-10.8 6.14-11.68 11.84-.49 3.46-.92 8.17-.73 14.6.2 6.44.9 11.16 1.59 14.63 1.2 5.72 6.53 10.97 12.19 12.04 3.44.61 8.11 1.21 14.46 1.27 6.35.05 10.99-.45 14.39-1 5.61-.97 10.62-6.15 11.53-11.88.51-3.48.97-8.21.89-14.68-.1-6.47-.69-11.21-1.31-14.69zm53.07-73.68c-.58 3.48-1.12 8.23-1.13 14.71 0 6.48.55 11.22 1.13 14.71 1.02 5.74 6.22 10.96 11.96 11.97 3.48.58 8.22 1.12 14.69 1.12 6.47-.01 11.21-.56 14.69-1.15 5.74-1.02 10.98-6.24 12.01-11.97.59-3.48 1.15-8.22 1.15-14.68 0-6.47-.56-11.2-1.15-14.68-1.03-5.73-6.27-10.95-12.01-11.97-3.48-.58-8.22-1.13-14.69-1.15-6.47 0-11.21.54-14.69 1.12-5.73 1.01-10.94 6.23-11.96 11.97zm-94.42-32.14c3.46.56 8.18 1.08 14.63 1.06 6.45-.03 11.19-.59 14.66-1.18 5.73-1.03 10.98-6.26 12.05-12 .62-3.48 1.21-8.22 1.31-14.69.08-6.47-.38-11.2-.89-14.68-.9-5.73-5.93-10.91-11.53-11.88-3.41-.55-8.04-1.06-14.39-1-6.35.07-11.02.66-14.46 1.27-5.66 1.07-10.99 6.32-12.19 12.04-.69 3.47-1.39 8.19-1.59 14.63-.18 6.44.24 11.14.73 14.61.87 5.7 5.97 10.85 11.68 11.83zm-76.77.56c3.46.54 8.16 1.03 14.62.98 6.45-.06 11.19-.63 14.68-1.23 5.75-1.05 11.06-6.25 12.23-11.95.68-3.46 1.36-8.16 1.59-14.58.22-6.42-.12-11.11-.54-14.56-.76-5.68-5.62-10.77-11.2-11.67-3.39-.52-8.01-.97-14.36-.86-6.35.13-11.04.76-14.49 1.4-5.7 1.12-11.17 6.34-12.52 11.99-.78 3.43-1.6 8.09-1.94 14.44-.32 6.35.01 11 .45 14.41.77 5.62 5.8 10.68 11.49 11.63zm17.06 31.77c-.61 3.44-1.19 8.12-1.19 14.51s.58 11.07 1.19 14.51c1.06 5.67 6.35 10.84 12.1 11.87 3.49.59 8.23 1.15 14.7 1.18 6.47.02 11.2-.5 14.67-1.06 5.72-.99 10.88-6.16 11.87-11.87.56-3.46 1.08-8.18 1.09-14.63 0-6.44-.53-11.16-1.09-14.63-.99-5.71-6.15-10.88-11.87-11.87-3.47-.56-8.21-1.08-14.67-1.07-6.47.03-11.21.59-14.7 1.18-5.75 1.03-11.04 6.2-12.1 11.87zm136.47-32.56c3.47.58 8.19 1.12 14.65 1.12 6.45 0 11.18-.55 14.65-1.12 5.72-1.01 10.89-6.22 11.86-11.96.55-3.48 1.06-8.22 1.02-14.7-.06-6.48-.64-11.22-1.24-14.71-1.06-5.74-6.22-10.97-11.86-12-3.42-.59-8.08-1.14-14.43-1.14s-11 .56-14.43 1.14c-5.63 1.03-10.81 6.26-11.86 12-.6 3.48-1.18 8.23-1.24 14.71-.04 6.48.47 11.22 1.02 14.7.97 5.74 6.14 10.95 11.86 11.96zm-59.41 32.41c-.59 3.48-1.15 8.21-1.16 14.66 0 6.46.57 11.18 1.16 14.66 1.04 5.73 6.29 10.94 12.03 11.96 3.48.59 8.23 1.14 14.69 1.15 6.47 0 11.2-.53 14.68-1.11 5.73-1.01 10.93-6.22 11.94-11.96.58-3.49 1.11-8.23 1.12-14.71 0-6.48-.54-11.22-1.12-14.71-1.01-5.74-6.21-10.96-11.94-11.96-3.48-.58-8.21-1.11-14.68-1.11-6.47.02-11.21.57-14.69 1.15-5.74 1.03-10.99 6.24-12.03 11.96zm329.93 14.63c-.05 29.91-2.86 57.31-8.59 83.83l-.06.25c-8.79 38.17-45.79 72.63-86.08 80.16-21.89 4.19-103.23 8.45-161.28 8.45s-139.39-4.26-161.28-8.45c-40.28-7.54-77.28-41.99-86.07-80.16l-.06-.25C2.86 365.49.05 338.09 0 308.25c.06-29.95 2.87-57.35 8.59-83.83l.06-.25c8.79-38.18 45.8-72.64 86.09-80.17 21.9-4.19 103.22-8.45 161.26-8.45 31.07 0 68.81 1.22 100.53 3 2.38-6.02 3.53-12.41 3.37-19.08-.32-13.03-5.7-25.15-15.14-34.12a48.543 48.543 0 0 0-32.93-13.41c-12.3-.18-24.11 4.27-33.28 12.53-23.14 20.86-52.97 30.77-83.99 27.91-31.02-2.85-58.54-18.05-77.48-42.78l-.42-.58c-.34-.49-3.43-4.86-6-9.19-5.36-9.02-2.39-20.68 6.64-26.04 9.02-5.36 20.68-2.39 26.04 6.64 1.53 2.57 3.52 5.46 4.15 6.36 12.41 16.04 30.35 25.89 50.56 27.75 20.35 1.88 39.9-4.63 55.07-18.3 16.31-14.69 37.37-22.6 59.25-22.3 21.89.29 42.71 8.77 58.59 23.87 16.81 15.98 26.38 37.55 26.94 60.74.19 7.69-.66 15.35-2.46 22.76 9.51.87 17.07 1.78 21.83 2.69 40.29 7.53 77.3 41.99 86.09 80.17l.06.25c5.73 26.48 8.54 53.88 8.59 83.76zm-38 0c-.05-27.05-2.57-51.8-7.7-75.59-5.48-23.52-30.59-46.49-56.03-51.23l-.1-.02c-17.67-3.4-95.6-7.78-154.16-7.78s-136.48 4.38-154.16 7.78l-.1.02c-25.44 4.74-50.55 27.71-56.03 51.23-5.13 23.8-7.65 48.55-7.7 75.67.05 27.39 2.5 51.44 7.7 75.6 5.48 23.52 30.59 46.48 56.03 51.23l.1.02c17.68 3.4 95.61 7.78 154.16 7.78s136.48-4.38 154.16-7.78l.1-.02c25.44-4.74 50.55-27.71 56.03-51.23 5.21-24.16 7.65-48.21 7.7-75.66z" opacity="1" data-original="url(#a)" class=""></path></g></svg>